<svg width="24" height="24" viewBox="0 0 24 24" fill="none" xmlns="http://www.w3.org/2000/svg">
<mask id="path-1-inside-1_207_1602" fill="white">
<path d="M12.0004 2C12.4632 2.00025 12.8383 2.37594 12.8383 2.83887C12.8383 3.30073 13.1852 3.68278 13.6314 3.80214C17.6542 4.87828 18.7382 9.81221 18.768 12.7334C18.7708 13.0007 18.8693 13.2579 19.0546 13.4505L19.8207 14.2471C20.7161 15.1785 21.2162 16.4209 21.2162 17.7129C21.2162 18.0899 20.9106 18.3955 20.5336 18.3955H15.5944C15.4613 18.3955 15.3578 18.5085 15.3578 18.6416C15.3576 20.4959 13.8547 21.9998 12.0004 22C10.1459 22 8.64219 20.496 8.64197 18.6416C8.64199 18.5085 8.53846 18.3955 8.40539 18.3955H3.68103C3.18538 18.3955 2.78357 17.9937 2.78357 17.498C2.78367 16.3352 3.18915 15.2087 3.93005 14.3125L4.66192 13.4267C4.80999 13.2475 4.88999 13.0188 4.89445 12.7864C5.01019 6.75252 8.00944 4.43288 10.3834 3.79054C10.8225 3.67173 11.1615 3.29376 11.1615 2.83887C11.1615 2.37578 11.5373 2 12.0004 2Z"/>
</mask>
<path d="M12.0004 2L12.0011 0.7H12.0004V2ZM19.8207 14.2471L20.7578 13.3461L20.7577 13.3459L19.8207 14.2471ZM15.3578 18.6416L16.6578 18.6418V18.6414L15.3578 18.6416ZM12.0004 22V23.3H12.0005L12.0004 22ZM8.64197 18.6416L7.34197 18.6414L7.34197 18.6418L8.64197 18.6416ZM2.78357 17.498L1.48357 17.4979V17.498H2.78357ZM3.93005 14.3125L4.93199 15.1408L4.93225 15.1405L3.93005 14.3125ZM10.3834 3.79054L10.0438 2.53567L10.3834 3.79054ZM4.66192 13.4267L3.65972 12.5987L4.66192 13.4267ZM4.89445 12.7864L3.59469 12.7614L4.89445 12.7864ZM18.768 12.7334L17.4681 12.7467L18.768 12.7334ZM19.0546 13.4505L18.1176 14.3517L19.0546 13.4505ZM12.0004 2L11.9997 3.3C11.7438 3.29986 11.5383 3.09264 11.5383 2.83887H12.8383H14.1383C14.1383 1.65923 13.1826 0.700646 12.0011 0.7L12.0004 2ZM13.6314 3.80214L13.2955 5.05798C14.8027 5.46119 15.8309 6.59227 16.511 8.10803C17.1959 9.63473 17.4545 11.4107 17.4681 12.7467L18.768 12.7334L20.068 12.7201C20.0518 11.1349 19.7534 8.98333 18.8832 7.04373C18.008 5.09319 16.4829 3.21923 13.9674 2.5463L13.6314 3.80214ZM19.0546 13.4505L18.1176 14.3517L18.8837 15.1482L19.8207 14.2471L20.7577 13.3459L19.9916 12.5494L19.0546 13.4505ZM19.8207 14.2471L18.8835 15.148C19.546 15.8371 19.9162 16.7566 19.9162 17.7129H21.2162H22.5162C22.5162 16.0851 21.8862 14.5198 20.7578 13.3461L19.8207 14.2471ZM20.5336 18.3955V17.0955H15.5944V18.3955V19.6955H20.5336V18.3955ZM15.3578 18.6416L14.0578 18.6414C14.0576 19.7784 13.1362 20.6999 12.0002 20.7L12.0004 22L12.0005 23.3C14.5732 23.2997 16.6575 21.2134 16.6578 18.6418L15.3578 18.6416ZM12.0004 22V20.7C10.864 20.7 9.94211 19.7782 9.94197 18.6414L8.64197 18.6416L7.34197 18.6418C7.34228 21.2139 9.42775 23.3 12.0004 23.3V22ZM8.40539 18.3955V17.0955H3.68103V18.3955V19.6955H8.40539V18.3955ZM2.78357 17.498L4.08357 17.4982C4.08364 16.6377 4.3837 15.804 4.93199 15.1408L3.93005 14.3125L2.92811 13.4842C1.9946 14.6134 1.4837 16.0328 1.48357 17.4979L2.78357 17.498ZM3.93005 14.3125L4.93225 15.1405L5.66411 14.2547L4.66192 13.4267L3.65972 12.5987L2.92786 13.4845L3.93005 14.3125ZM4.89445 12.7864L6.19421 12.8113C6.24794 10.0101 6.9659 8.20134 7.83202 7.04673C8.69971 5.89002 9.78303 5.29973 10.7229 5.04542L10.3834 3.79054L10.0438 2.53567C8.60977 2.92369 7.0065 3.81439 5.75215 5.48655C4.49623 7.1608 3.65669 9.52882 3.59469 12.7614L4.89445 12.7864ZM11.1615 2.83887H12.4615C12.4615 3.09375 12.2552 3.3 12.0004 3.3V2V0.7C10.8193 0.7 9.8615 1.65781 9.8615 2.83887H11.1615ZM10.3834 3.79054L10.7229 5.04542C11.6301 4.79994 12.4615 3.9773 12.4615 2.83887H11.1615H9.8615C9.8615 2.73295 9.90304 2.65058 9.94178 2.60447C9.97689 2.56267 10.0133 2.54393 10.0438 2.53567L10.3834 3.79054ZM4.66192 13.4267L5.66411 14.2547C6.0103 13.8357 6.18446 13.3195 6.19421 12.8113L4.89445 12.7864L3.59469 12.7614C3.59552 12.7181 3.60968 12.6592 3.65972 12.5987L4.66192 13.4267ZM3.68103 18.3955V17.0955C3.90335 17.0955 4.08357 17.2757 4.08357 17.498H2.78357H1.48357C1.48357 18.7117 2.46741 19.6955 3.68103 19.6955V18.3955ZM8.64197 18.6416L9.94197 18.6418C9.94207 17.8581 9.32209 17.0955 8.40539 17.0955V18.3955V19.6955C7.75483 19.6955 7.3419 19.159 7.34197 18.6414L8.64197 18.6416ZM21.2162 17.7129H19.9162C19.9162 17.3719 20.1926 17.0955 20.5336 17.0955V18.3955V19.6955C21.6285 19.6955 22.5162 18.8079 22.5162 17.7129H21.2162ZM18.768 12.7334L17.4681 12.7467C17.474 13.3234 17.6878 13.9047 18.1176 14.3517L19.0546 13.4505L19.9916 12.5494C20.0508 12.611 20.0675 12.678 20.068 12.7201L18.768 12.7334ZM15.5944 18.3955V17.0955C14.6777 17.0955 14.0577 17.8581 14.0578 18.6418L15.3578 18.6416L16.6578 18.6414C16.6579 19.159 16.2449 19.6955 15.5944 19.6955V18.3955ZM12.8383 2.83887H11.5383C11.5383 3.99156 12.3859 4.81465 13.2955 5.05798L13.6314 3.80214L13.9674 2.5463C13.9932 2.5532 14.026 2.56921 14.0593 2.60845C14.0964 2.65226 14.1383 2.73328 14.1383 2.83887H12.8383Z" fill="#8E8E93" mask="url(#path-1-inside-1_207_1602)"/>
</svg>
