<svg width="24" height="24" viewBox="0 0 24 24" fill="none" xmlns="http://www.w3.org/2000/svg">
<path fill-rule="evenodd" clip-rule="evenodd" d="M2 12.0005C2.00844 17.5162 6.48237 21.9849 12 21.9849C17.1739 21.9847 21.4292 18.0553 21.9463 13.0181C21.4434 18.0694 17.1816 22.015 11.9981 22.0151C6.47655 22.0147 2.00016 17.5377 2 12.0161C2 12.0109 2 12.0057 2 12.0005ZM12.1846 15.4849C13.2904 15.4849 14.3457 15.5613 15.3203 15.6987C15.117 16.7702 14.8293 17.7308 14.4785 18.5327C14.1192 19.3539 13.704 19.9876 13.2686 20.4087C12.8355 20.8272 12.4062 21.0151 11.9981 21.0151L11.8447 21.0063C11.4833 20.9648 11.1076 20.7751 10.7285 20.4087C10.293 19.9876 9.87703 19.3542 9.51758 18.5327C9.1726 17.7442 8.88925 16.8024 8.68653 15.7524C9.76063 15.5807 10.9411 15.4849 12.1846 15.4849ZM7.70411 15.937C7.91957 17.0547 8.22371 18.0694 8.60157 18.9331C8.89971 19.6145 9.24922 20.2155 9.64454 20.7017C7.53819 20.1321 5.73788 18.8182 4.54493 17.0581C5.34967 16.6003 6.4317 16.2129 7.70411 15.937ZM16.3066 15.8638C17.5916 16.1143 18.6984 16.4771 19.5469 16.9106C18.3553 18.7444 16.5155 20.1167 14.3506 20.7017C14.7461 20.2154 15.0963 19.6148 15.3945 18.9331C15.7806 18.0506 16.0905 17.0104 16.3066 15.8638ZM4.03223 7.8335C4.95046 8.35927 6.15383 8.78594 7.54004 9.08252C7.41162 10.0115 7.34279 10.9974 7.34278 12.0161C7.34279 13.0344 7.41173 14.0201 7.54004 14.9487C6.15374 15.2453 4.95051 15.6729 4.03223 16.1987L4.28125 16.6333L4.36133 16.7739C3.49964 15.3936 3.00006 13.7632 3 12.0161C3.00006 10.5058 3.37424 9.08306 4.03223 7.8335ZM20.0449 7.98877C20.6527 9.20065 20.997 10.568 20.9971 12.0161C20.997 13.4642 20.6517 14.8316 20.0439 16.0435C19.0833 15.5459 17.8593 15.1446 16.4658 14.8755C16.5877 13.9683 16.6543 13.0077 16.6543 12.0161C16.6543 11.024 16.5878 10.0633 16.4658 9.15576C17.8596 8.88658 19.0843 8.48652 20.0449 7.98877ZM8.52442 9.26514C9.66292 9.44741 10.8989 9.54832 12.1846 9.54834C13.333 9.54833 14.4425 9.46678 15.4785 9.31982C15.5914 10.1699 15.6543 11.0751 15.6543 12.0161C15.6543 12.957 15.5913 13.8625 15.4785 14.7124C14.4425 14.5655 13.333 14.4849 12.1846 14.4849C10.8987 14.4849 9.66214 14.5838 8.52344 14.7661C8.40603 13.9007 8.34279 12.9767 8.34278 12.0161C8.34279 11.055 8.40689 10.1309 8.52442 9.26514ZM12 1.98486C17.5227 1.985 22 6.4621 22 11.9849C22 12.3338 21.9812 12.6784 21.9463 13.0181C21.9791 12.6885 21.9971 12.3543 21.9971 12.0161C21.9969 6.49439 17.5198 2.0182 11.9981 2.01807C6.48178 2.01849 2.00862 6.48613 2 12.0005C2 11.9953 2 11.9901 2 11.9849C2 6.46202 6.47716 1.98486 12 1.98486ZM11.9981 3.01807C12.4062 3.01814 12.8355 3.20491 13.2686 3.62354C13.7042 4.04471 14.1191 4.67887 14.4785 5.50049C14.8293 6.30231 15.117 7.26217 15.3203 8.3335C14.3457 8.47089 13.2904 8.54833 12.1846 8.54834C10.941 8.54832 9.7607 8.45059 8.68653 8.27881C8.88918 7.22968 9.17286 6.28856 9.51758 5.50049C9.87698 4.67903 10.293 4.0447 10.7285 3.62354C11.1614 3.20522 11.5901 3.0183 11.9981 3.01807ZM14.3506 3.33057C16.5152 3.91541 18.3553 5.28718 19.5469 7.12061C18.6986 7.55409 17.5923 7.91791 16.3076 8.16846C16.0915 7.02199 15.7806 5.98256 15.3945 5.1001C15.0961 4.41806 14.7463 3.817 14.3506 3.33057ZM9.64454 3.33057C9.24918 3.81679 8.89973 4.4186 8.60157 5.1001C8.22387 5.96361 7.91853 6.97793 7.70313 8.09521C6.43099 7.81934 5.3495 7.43192 4.54493 6.97412C5.73789 5.21421 7.53836 3.90008 9.64454 3.33057ZM4.28125 7.3999L4.03809 7.82178C4.14098 7.62707 4.25082 7.43645 4.36719 7.25049L4.28125 7.3999Z" fill="#8E8E93"/>
</svg>
