<svg width="24" height="24" viewBox="0 0 24 24" fill="none" xmlns="http://www.w3.org/2000/svg">
<path d="M18.2689 7.88025C19.7378 7.88044 20.931 9.06827 20.931 10.5365C20.9308 12.0046 19.7377 13.1926 18.2689 13.1927C16.7998 13.1927 15.6059 12.0047 15.6058 10.5365C15.6058 9.06816 16.7997 7.88025 18.2689 7.88025Z" stroke="#8E8E93"/>
<mask id="path-2-outside-1_207_1610" maskUnits="userSpaceOnUse" x="12.111" y="15.3257" width="12" height="6" fill="black">
<rect fill="white" x="12.111" y="15.3257" width="12" height="6"/>
<path d="M18.2682 16.3257C20.5637 16.3257 22.4251 17.9478 22.4254 19.9487H14.111C14.1113 17.9477 15.9726 16.3257 18.2682 16.3257Z"/>
</mask>
<path d="M18.2682 16.3257L18.2682 15.3257H18.2682V16.3257ZM22.4254 19.9487V20.9487H23.4256L23.4254 19.9486L22.4254 19.9487ZM14.111 19.9487L13.111 19.9486L13.1108 20.9487H14.111V19.9487ZM18.2682 16.3257L18.2682 17.3257C20.145 17.3257 21.4252 18.6248 21.4254 19.9489L22.4254 19.9487L23.4254 19.9486C23.425 17.2707 20.9825 15.3258 18.2682 15.3257L18.2682 16.3257ZM22.4254 19.9487V18.9487H14.111V19.9487V20.9487H22.4254V19.9487ZM14.111 19.9487L15.111 19.9489C15.1112 18.6247 16.3914 17.3257 18.2682 17.3257V16.3257V15.3257C15.5538 15.3257 13.1114 17.2707 13.111 19.9486L14.111 19.9487Z" fill="#8E8E93" mask="url(#path-2-outside-1_207_1610)"/>
<path d="M7.15167 4.32007C9.0808 4.32024 10.6448 5.88358 10.6448 7.81226C10.6446 9.74074 9.08066 11.3033 7.15167 11.3035C5.22254 11.3035 3.65775 9.74085 3.65753 7.81226C3.65753 5.88348 5.22241 4.32007 7.15167 4.32007Z" stroke="#8E8E93"/>
<mask id="path-5-outside-2_207_1610" maskUnits="userSpaceOnUse" x="0.187073" y="13.7362" width="14" height="8" fill="black">
<rect fill="white" x="0.187073" y="13.7362" width="14" height="8"/>
<path d="M7.15094 14.7362C10.445 14.7362 13.1158 17.0703 13.1158 19.9491H1.18707C1.18709 17.0704 3.85709 14.7364 7.15094 14.7362Z"/>
</mask>
<path d="M7.15094 14.7362V13.7362H7.15088L7.15094 14.7362ZM13.1158 19.9491V20.9491H14.1158L14.1158 19.9491L13.1158 19.9491ZM1.18707 19.9491L0.187073 19.9491L0.187066 20.9491H1.18707V19.9491ZM7.15094 14.7362V15.7362C10.0235 15.7362 12.1158 17.7449 12.1158 19.9491L13.1158 19.9491L14.1158 19.9491C14.1158 16.3957 10.8665 13.7362 7.15094 13.7362V14.7362ZM13.1158 19.9491V18.9491H1.18707V19.9491V20.9491H13.1158V19.9491ZM1.18707 19.9491L2.18707 19.9491C2.18709 17.7449 4.27874 15.7364 7.151 15.7362L7.15094 14.7362L7.15088 13.7362C3.43545 13.7364 0.187095 16.396 0.187073 19.9491L1.18707 19.9491Z" fill="#8E8E93" mask="url(#path-5-outside-2_207_1610)"/>
</svg>
